<svg xmlns="http://www.w3.org/2000/svg" xmlns:xlink="http://www.w3.org/1999/xlink"
 viewBox="0 0 126.94 150.7"><defs><style>.cls-1{fill:url
 (#Degradado_sin_nombre_3796);}.cls-2{fill:#61a780;}.cls-3
 {fill:url(#Degradado_sin_nombre_3796-2);}.cls-4{fill:url
 (#Degradado_sin_nombre_3796-3);}.cls-5{fill:url(#Degradado_sin_nombre_3796-4);}.cls-6
 {fill:url(#Degradado_sin_nombre_3796-5);}.cls-7{fill:#142325;}.cls-8{fill:url(#Degradado_sin_nombre_3796-6);}
 </style><linearGradient id="Degradado_sin_nombre_3796" x1="0.19" y1="60.67"
  x2="121.52" y2="60.67" gradientUnits="userSpaceOnUse"><stop offset="0.19" 
  stop-color="#5b24c6"/><stop offset="0.29" stop-color="#6a30cf"/><stop offset="0.85"
   stop-color="#b971ff"/></linearGradient><linearGradient id="Degradado_sin_nombre_3796-2"
    x1="51" y1="42.08" x2="88.6" y2="42.08" xlink:href="#Degradado_sin_nombre_3796"/><linearGradient
     id="Degradado_sin_nombre_3796-3" x1="33.62" y1="52" x2="74.87" y2="52" 
     xlink:href="#Degradado_sin_nombre_3796"/><linearGradient id="Degradado_sin_nombre_3796-4" 
     x1="60.31" y1="34.62" x2="64.08" y2="87.62" xlink:href="#Degradado_sin_nombre_3796"/>
     
     <linearGradient id="Degradado_sin_nombre_3796-5" x1="62.2" y1="34.93" x2="57" y2="102.58" 
     xlink:href="#Degradado_sin_nombre_3796"/><linearGradient id="Degradado_sin_nombre_3796-6" x1="0" y1="139.58" 
     x2="126.94" y2="139.58" xlink:href="#Degradado_sin_nombre_3796"/></defs><g id="Layer_2" data-name="Layer 2">
     <g id="OBJECTS"><path class="cls-1" d="M60.85,2a58.63,58.63,0,0,1,41.46,100.08A58.63,58.63,0,0,1,19.4,19.21,58.24,58.24,0,0,1,60.85,2m0-2a60.67,60.67,0,1,0,60.67,60.67A60.66,60.66,0,0,0,60.85,0Z"/><path class="cls-2" d="M60.85,4.64a56,56,0,0,0-7.67,111.53,51.71,51.71,0,0,0,5.17.47c.83,0,1.67.06,2.5.06a56,56,0,0,0,0-112.06Zm0,111.39c-.78,0-1.57,0-2.35,0-1.71-.07-3.4-.22-5.06-.44a55.37,55.37,0,1,1,62-64.28,52.22,52.22,0,0,1,.7,6.17c.07,1.08.1,2.15.1,3.24A55.35,55.35,0,0,1,60.85,116Z"/><path class="cls-2" d="M57.9,115.9l-.15.66c-1.75-.08-3.47-.24-5.17-.47l.25-.63c4.87-12.16,3.75-26.74,3.75-26.74l5.51-1C62.79,93.44,59,111.11,57.9,115.9Z"/><path class="cls-3" d="M76.68,15.35S87.31,26,51,52L78.82,68.8,88.6,55.06s-1.53-9.47-2.45-16.19S81.27,18.1,76.68,15.35Z"/><path class="cls-4" d="M62.33,13.52s-7.64,0-11.91,11-16.8,26-16.8,26l15,40L74.24,71.25S78.52,52.92,64.77,38,53.47,19,62.33,13.52Z"/><path class="cls-5" d="M60.19,34S41.86,57.2,49.81,85.6l7,6L77.71,65.23s-3.47-16-8.66-22.08S62.33,34.9,60.19,34Z"/><path class="cls-6" d="M35.76,34.9S19.87,59,29.34,76.13s31.53,28.15,53.15,10.39c17.1-14,10.38-44.6,10.38-44.6S88.6,59,77.6,63.31s-23.14,17.12-22.87,27c0,0,.57-4.75-7.67-19.1S31.17,47.12,35.76,34.9Z"/><path class="cls-7" d="M32.55,47.88S28.51,72.32,51,90.49C51,90.49,23.69,76.9,32.55,47.88Z"/><path class="cls-7" d="M90.93,62.8S70,68.31,63.25,85.66C63.25,85.66,69.74,72.67,90.93,62.8Z"/><path class="cls-8" d="M12.6,140.13c0,2.78-2.13,5-6.25,5A8.58,8.58,0,0,1,0,142.54L1.48,140a6.88,6.88,0,0,0,4.91,2.22c2.06,0,3.25-.76,3.25-1.85s-1.12-1.65-3.15-1.95c-4.43-.67-5.93-2.31-5.93-4.68,0-2.59,2.1-4.86,6-4.86a8.37,8.37,0,0,1,5.33,1.9l-1.25,2.55a6.55,6.55,0,0,0-4.12-1.49c-1.58,0-3,.44-3,1.7,0,1.06.9,1.45,3.15,1.83C10.08,135.87,12.6,136.8,12.6,140.13ZM26.31,139a6.12,6.12,0,1,1-6.11-6.11A6.11,6.11,0,0,1,26.31,139Zm-3,0a3.15,3.15,0,1,0-3.15,3.15A3.15,3.15,0,0,0,23.35,139ZM36,132.91v3.49a4.63,4.63,0,0,0-2.22,0,3.56,3.56,0,0,0-2.6,3.55v4.82h-3V133.28h3v2.43C31.9,133.93,33.87,133.05,36,132.91Zm10,0v3.49a4.67,4.67,0,0,0-2.23,0A3.56,3.56,0,0,0,41.14,140v4.82h-3V133.28h3v2.43C41.9,133.93,43.87,133.05,46,132.91Zm12.55,7H50.15a3.34,3.34,0,0,0,3.41,2.59A6.12,6.12,0,0,0,57,141.48l.86,2.57a8.06,8.06,0,0,1-4.33,1.09c-4.47,0-6.44-2.78-6.44-6.12S49,132.91,53,132.91c3.59,0,5.56,2.27,5.56,6.11C58.56,139.28,58.54,139.65,58.51,140Zm-3.1-2.23a2.38,2.38,0,0,0-2.6-2.22,2.6,2.6,0,0,0-2.59,2.22Zm8-9.26v16.31h-3V128.46Zm22.23,11.63c0,2.68-2,4.68-5.32,4.68H73.38V129.2h5.56c3.57,0,5.93,1.21,5.93,4.08A3.29,3.29,0,0,1,83,136.4,3.48,3.48,0,0,1,85.61,140.09Zm-9.26-5h2.78c1.76,0,2.78-.46,2.78-1.48,0-1.21-1-1.48-2.78-1.48H76.35Zm6.3,4.63c0-1.39-1.23-2-3.15-2H76.35v4.08H79.5C81.42,141.8,82.65,141.18,82.65,139.76Zm16.68-6.48v11.49h-3v-1.23a4.52,4.52,0,0,1-3.52,1.6,6.13,6.13,0,0,1,0-12.23,4.51,4.51,0,0,1,3.52,1.59v-1.22Zm-3,5.74a3.15,3.15,0,1,0-3.15,3.15A3.15,3.15,0,0,0,96.36,139Zm16.5-.93v6.68h-3v-6.3c0-1.79-.69-2.6-2.22-2.6-1.35,0-2.6.88-2.6,3v5.93h-3V133.28h3v1.11a4.08,4.08,0,0,1,3.48-1.48C111.19,132.91,112.86,134.62,112.86,138.09ZM124,134.5v-1.22h3V150.7h-3v-7.16a4.55,4.55,0,0,1-3.53,1.6,6.13,6.13,0,0,1,0-12.23A4.54,4.54,0,0,1,124,134.5Zm0,4.52a3.16,3.16,0,1,0-3.15,
3.15A3.16,3.16,0,0,0,124,139Zm-2.06,11.07H.58v.
61H121.92Z"/></g></g></svg>